HIERARCHY
ROOT mixamorig:Hips
{
	OFFSET 0.000000 201.639420 0.000000
	CHANNELS 6 Xposition Yposition Zposition Xrotation Yrotation Zrotation
	JOINT mixamorig:Spine
	{
		OFFSET 0.006200 19.524994 -2.481800
		CHANNELS 3 Xrotation Yrotation Zrotation
		JOINT mixamorig:Spine1
		{
			OFFSET -0.000900 22.835007 -2.825400
			CHANNELS 3 Xrotation Yrotation Zrotation
			JOINT mixamorig:Spine2
			{
				OFFSET -0.020600 26.552490 -3.193300
				CHANNELS 3 Xrotation Yrotation Zrotation
				JOINT mixamorig:Neck
				{
					OFFSET -0.060000 30.701813 1.352200
					CHANNELS 3 Xrotation Yrotation Zrotation
					JOINT mixamorig:Head
					{
						OFFSET -0.087200 22.547607 3.670900
						CHANNELS 3 Xrotation Yrotation Zrotation
						JOINT mixamorig:HeadTop_End
						{
							OFFSET -0.830600 40.355194 7.893500
							CHANNELS 3 Xrotation Yrotation Zrotation
							End Site
							{
								OFFSET 0.000000 30.592346 0.000000
							}
						}
						JOINT mixamorig:RightEye
						{
							OFFSET -6.302100 18.118591 16.197100
							CHANNELS 3 Xrotation Yrotation Zrotation
							End Site
							{
								OFFSET 0.000000 30.592346 0.000000
							}
						}
						JOINT mixamorig:LeftEye
						{
							OFFSET 6.741500 18.382690 16.401899
							CHANNELS 3 Xrotation Yrotation Zrotation
							End Site
							{
								OFFSET 0.000000 30.592346 0.000000
							}
						}
					}
				}
				JOINT mixamorig:LeftShoulder
				{
					OFFSET 11.924900 18.230499 1.425400
					CHANNELS 3 Xrotation Yrotation Zrotation
					JOINT mixamorig:LeftArm
					{
						OFFSET 25.435989 -0.697632 -5.229300
						CHANNELS 3 Xrotation Yrotation Zrotation
						JOINT mixamorig:LeftForeArm
						{
							OFFSET 54.684776 0.000000 0.000000
							CHANNELS 3 Xrotation Yrotation Zrotation
							JOINT mixamorig:LeftHand
							{
								OFFSET 55.098175 0.000000 0.000000
								CHANNELS 3 Xrotation Yrotation Zrotation
								JOINT mixamorig:LeftHandMiddle1
								{
									OFFSET 23.369751 0.000000 0.000000
									CHANNELS 3 Xrotation Yrotation Zrotation
									JOINT mixamorig:LeftHandMiddle2
									{
										OFFSET 6.378677 0.000000 0.000000
										CHANNELS 3 Xrotation Yrotation Zrotation
										JOINT mixamorig:LeftHandMiddle3
										{
											OFFSET 6.148331 0.000000 0.000000
											CHANNELS 3 Xrotation Yrotation Zrotation
											JOINT mixamorig:LeftHandMiddle4
											{
												OFFSET 6.582504 0.000000 0.000000
												CHANNELS 3 Xrotation Yrotation Zrotation
												End Site
												{
													OFFSET -1.168900 6.395691 1.028606
												}
											}
										}
									}
								}
								JOINT mixamorig:LeftHandThumb1
								{
									OFFSET 7.235672 -3.848206 5.434273
									CHANNELS 3 Xrotation Yrotation Zrotation
									JOINT mixamorig:LeftHandThumb2
									{
										OFFSET 6.568451 -3.792297 3.792300
										CHANNELS 3 Xrotation Yrotation Zrotation
										JOINT mixamorig:LeftHandThumb3
										{
											OFFSET 6.063080 -3.500519 3.500518
											CHANNELS 3 Xrotation Yrotation Zrotation
											JOINT mixamorig:LeftHandThumb4
											{
												OFFSET 4.793182 -2.767334 2.767349
												CHANNELS 3 Xrotation Yrotation Zrotation
												End Site
												{
													OFFSET 0.101639 6.054260 1.275483
												}
											}
										}
									}
								}
								JOINT mixamorig:LeftHandIndex1
								{
									OFFSET 23.101074 -0.309540 4.992809
									CHANNELS 3 Xrotation Yrotation Zrotation
									JOINT mixamorig:LeftHandIndex2
									{
										OFFSET 6.226883 0.000000 0.000000
										CHANNELS 3 Xrotation Yrotation Zrotation
										JOINT mixamorig:LeftHandIndex3
										{
											OFFSET 6.094330 0.000000 0.000000
											CHANNELS 3 Xrotation Yrotation Zrotation
											JOINT mixamorig:LeftHandIndex4
											{
												OFFSET 5.482605 0.000000 0.000000
												CHANNELS 3 Xrotation Yrotation Zrotation
												End Site
												{
													OFFSET -1.427902 5.233032 0.797164
												}
											}
										}
									}
								}
								JOINT mixamorig:LeftHandRing1
								{
									OFFSET 22.299240 0.021149 -3.964172
									CHANNELS 3 Xrotation Yrotation Zrotation
									JOINT mixamorig:LeftHandRing2
									{
										OFFSET 6.321869 0.000000 0.000000
										CHANNELS 3 Xrotation Yrotation Zrotation
										JOINT mixamorig:LeftHandRing3
										{
											OFFSET 5.899796 0.000000 0.000000
											CHANNELS 3 Xrotation Yrotation Zrotation
											JOINT mixamorig:LeftHandRing4
											{
												OFFSET 6.517899 0.000000 0.000000
												CHANNELS 3 Xrotation Yrotation Zrotation
												End Site
												{
													OFFSET -1.637299 6.232208 0.980890
												}
											}
										}
									}
								}
								JOINT mixamorig:LeftHandPinky1
								{
									OFFSET 20.463791 -0.302338 -8.562233
									CHANNELS 3 Xrotation Yrotation Zrotation
									JOINT mixamorig:LeftHandPinky2
									{
										OFFSET 6.908646 0.000000 0.000000
										CHANNELS 3 Xrotation Yrotation Zrotation
										JOINT mixamorig:LeftHandPinky3
										{
											OFFSET 4.622849 0.000000 0.000000
											CHANNELS 3 Xrotation Yrotation Zrotation
											JOINT mixamorig:LeftHandPinky4
											{
												OFFSET 5.216080 0.000000 0.000000
												CHANNELS 3 Xrotation Yrotation Zrotation
												End Site
												{
													OFFSET -0.606308 5.116241 0.814926
												}
											}
										}
									}
								}
							}
						}
					}
				}
				JOINT mixamorig:RightShoulder
				{
					OFFSET -12.001300 18.284088 1.348900
					CHANNELS 3 Xrotation Yrotation Zrotation
					JOINT mixamorig:RightArm
					{
						OFFSET -25.308500 -0.751312 -5.164599
						CHANNELS 3 Xrotation Yrotation Zrotation
						JOINT mixamorig:RightForeArm
						{
							OFFSET -54.684429 0.000000 0.000000
							CHANNELS 3 Xrotation Yrotation Zrotation
							JOINT mixamorig:RightHand
							{
								OFFSET -55.150291 0.000000 0.000000
								CHANNELS 3 Xrotation Yrotation Zrotation
								JOINT mixamorig:RightHandMiddle1
								{
									OFFSET -23.317566 0.000000 0.000000
									CHANNELS 3 Xrotation Yrotation Zrotation
									JOINT mixamorig:RightHandMiddle2
									{
										OFFSET -6.378403 0.000000 0.000000
										CHANNELS 3 Xrotation Yrotation Zrotation
										JOINT mixamorig:RightHandMiddle3
										{
											OFFSET -6.148193 0.000000 0.000000
											CHANNELS 3 Xrotation Yrotation Zrotation
											JOINT mixamorig:RightHandMiddle4
											{
												OFFSET -6.583389 0.000000 0.000000
												CHANNELS 3 Xrotation Yrotation Zrotation
												End Site
												{
													OFFSET 1.171692 6.395905 1.029786
												}
											}
										}
									}
								}
								JOINT mixamorig:RightHandThumb1
								{
									OFFSET -7.190521 -3.860474 5.435846
									CHANNELS 3 Xrotation Yrotation Zrotation
									JOINT mixamorig:RightHandThumb2
									{
										OFFSET -6.567429 -3.791718 3.791708
										CHANNELS 3 Xrotation Yrotation Zrotation
										JOINT mixamorig:RightHandThumb3
										{
											OFFSET -6.062469 -3.500153 3.500166
											CHANNELS 3 Xrotation Yrotation Zrotation
											JOINT mixamorig:RightHandThumb4
											{
												OFFSET -4.792618 -2.767029 2.767022
												CHANNELS 3 Xrotation Yrotation Zrotation
												End Site
												{
													OFFSET -0.100327 6.053253 1.276754
												}
											}
										}
									}
								}
								JOINT mixamorig:RightHandIndex1
								{
									OFFSET -23.048981 -0.310791 4.992554
									CHANNELS 3 Xrotation Yrotation Zrotation
									JOINT mixamorig:RightHandIndex2
									{
										OFFSET -6.227539 0.000000 0.000000
										CHANNELS 3 Xrotation Yrotation Zrotation
										JOINT mixamorig:RightHandIndex3
										{
											OFFSET -6.095047 0.000000 0.000000
											CHANNELS 3 Xrotation Yrotation Zrotation
											JOINT mixamorig:RightHandIndex4
											{
												OFFSET -5.484772 0.000000 0.000000
												CHANNELS 3 Xrotation Yrotation Zrotation
												End Site
												{
													OFFSET 1.420593 5.237305 0.797056
												}
											}
										}
									}
								}
								JOINT mixamorig:RightHandRing1
								{
									OFFSET -22.246323 0.020569 -3.963762
									CHANNELS 3 Xrotation Yrotation Zrotation
									JOINT mixamorig:RightHandRing2
									{
										OFFSET -6.322128 0.000000 0.000000
										CHANNELS 3 Xrotation Yrotation Zrotation
										JOINT mixamorig:RightHandRing3
										{
											OFFSET -5.900024 0.000000 0.000000
											CHANNELS 3 Xrotation Yrotation Zrotation
											JOINT mixamorig:RightHandRing4
											{
												OFFSET -6.518356 0.000000 0.000000
												CHANNELS 3 Xrotation Yrotation Zrotation
												End Site
												{
													OFFSET 1.636398 6.232697 0.982186
												}
											}
										}
									}
								}
								JOINT mixamorig:RightHandPinky1
								{
									OFFSET -20.411011 -0.303314 -8.561701
									CHANNELS 3 Xrotation Yrotation Zrotation
									JOINT mixamorig:RightHandPinky2
									{
										OFFSET -6.907349 0.000000 0.000000
										CHANNELS 3 Xrotation Yrotation Zrotation
										JOINT mixamorig:RightHandPinky3
										{
											OFFSET -4.623840 0.000000 0.000000
											CHANNELS 3 Xrotation Yrotation Zrotation
											JOINT mixamorig:RightHandPinky4
											{
												OFFSET -5.218353 0.000000 0.000000
												CHANNELS 3 Xrotation Yrotation Zrotation
												End Site
												{
													OFFSET 0.602097 5.118835 0.816273
												}
											}
										}
									}
								}
							}
						}
					}
				}
			}
		}
	}
	JOINT mixamorig:LeftUpLeg
	{
		OFFSET 18.168400 -13.561905 -0.039000
		CHANNELS 3 Xrotation Yrotation Zrotation
		JOINT mixamorig:LeftLeg
		{
			OFFSET 0.577358 -80.825211 -3.695000
			CHANNELS 3 Xrotation Yrotation Zrotation
			JOINT mixamorig:LeftFoot
			{
				OFFSET -0.577356 -83.370262 -6.520700
				CHANNELS 3 Xrotation Yrotation Zrotation
				JOINT mixamorig:LeftToeBase
				{
					OFFSET 0.750401 -20.798306 25.135401
					CHANNELS 3 Xrotation Yrotation Zrotation
					JOINT mixamorig:LeftToe_End
					{
						OFFSET -0.000500 0.001200 19.917799
						CHANNELS 3 Xrotation Yrotation Zrotation
						End Site
						{
							OFFSET 0.000000 19.917805 0.000000
						}
					}
				}
			}
		}
	}
	JOINT mixamorig:RightUpLeg
	{
		OFFSET -18.162500 -13.585098 -0.041000
		CHANNELS 3 Xrotation Yrotation Zrotation
		JOINT mixamorig:RightLeg
		{
			OFFSET -0.595024 -80.945297 -3.631900
			CHANNELS 3 Xrotation Yrotation Zrotation
			JOINT mixamorig:RightFoot
			{
				OFFSET 0.595024 -83.218193 -6.561200
				CHANNELS 3 Xrotation Yrotation Zrotation
				JOINT mixamorig:RightToeBase
				{
					OFFSET -0.753601 -20.807106 25.115000
					CHANNELS 3 Xrotation Yrotation Zrotation
					JOINT mixamorig:RightToe_End
					{
						OFFSET 0.000299 0.001700 19.918200
						CHANNELS 3 Xrotation Yrotation Zrotation
						End Site
						{
							OFFSET 0.000000 19.918203 0.000000
						}
					}
				}
			}
		}
	}
}
MOTION
Frames: 5
Frame Time: 0.033333
0.287789 163.188995 5.740601 51.425754 -0.342161 -2.307770 1.554365 0.225336 0.191821 3.907961 0.426578 0.698459 3.908466 0.431152 0.690641 -26.495839 -1.384719 3.273910 -27.358147 0.789760 -4.969103 0.000000 0.000000 -0.000000 0.000000 0.000000 -0.000000 0.000000 0.000000 -0.000000 3.574419 -12.999969 -6.031711 -48.745616 -54.589884 -88.888225 0.000014 -0.752524 0.000003 10.596710 10.349139 -9.363926 2.069838 7.144935 -68.935009 1.308888 3.692191 -39.028217 2.020400 4.426085 -49.054101 -0.000003 0.000000 0.000001 53.417861 -58.203355 -1.904848 24.634281 22.667928 -20.232535 3.342257 37.866292 23.350748 -0.000002 0.000000 0.000000 1.083345 6.705517 -67.770831 1.160430 3.501476 -36.662181 1.379368 3.777282 -40.110211 0.000001 0.000001 -0.000002 4.777446 8.123912 -72.462037 1.028717 3.317520 -34.447837 2.074159 4.472026 -49.747116 -0.000000 -0.000000 0.000001 5.422249 13.737748 -67.399521 0.703664 2.785704 -28.347486 0.732640 2.838699 -28.938115 0.000000 0.000000 -0.000001 3.705286 11.015349 15.109681 -44.848730 46.629097 76.914180 -0.000000 0.736217 0.000020 33.171514 2.039498 33.787679 0.315270 -5.064493 58.714014 1.283214 -3.212102 43.544355 1.866522 -3.729940 53.156056 0.000000 -0.000001 0.000001 42.310823 34.896362 13.793786 16.851306 -20.758272 -4.962516 3.222774 -35.414142 -21.752283 -0.000003 -0.000000 -0.000000 1.375400 -5.012842 49.705134 1.447730 -3.376454 46.406252 0.848089 -2.681551 35.095537 -0.000001 -0.000000 -0.000001 -0.086707 -4.874942 59.662037 0.877242 -2.722516 35.713898 2.186021 -3.948692 57.925018 0.000000 0.000001 0.000000 1.441626 -5.623284 49.903220 0.830730 -2.656694 34.722677 1.138205 -3.052502 40.890710 -0.000001 0.000001 -0.000001 -104.509134 -2.744936 17.760010 62.799601 -1.837860 -8.291411 -8.595184 0.204661 -2.563195 0.366432 0.000002 0.000002 -0.000000 -0.000002 0.000000 -104.450606 -4.059773 -17.700032 61.775646 2.086828 9.943745 -8.245078 0.104297 -0.757688 0.497183 -0.000007 -0.000001 0.000000 0.000000 0.000000 
0.379691 163.324005 5.759918 50.774773 -0.335075 -2.309671 1.552800 0.207277 0.196517 3.882244 0.399536 0.702957 3.882887 0.405057 0.698826 -26.381968 -1.405885 3.270235 -27.006836 0.649975 -4.800132 -0.000000 0.000000 0.000000 -0.000000 0.000000 0.000000 -0.000000 0.000000 0.000000 3.574421 -12.993222 -5.984669 -49.117974 -54.926599 -89.043448 0.000005 -0.108500 -0.000008 11.203202 10.020932 -9.117106 2.055512 7.152373 -69.299215 1.314998 3.699689 -39.122883 2.023276 4.428523 -49.091168 -0.000004 -0.000000 0.000001 53.417871 -58.203361 -1.904819 24.826346 22.965087 -20.461135 3.201197 37.771076 23.575622 -0.000001 0.000002 -0.000001 1.233499 6.791871 -68.275063 1.168454 3.512198 -36.793314 1.369396 3.765431 -39.958365 -0.000001 0.000000 0.000001 4.762206 8.117261 -72.628195 1.035995 3.328094 -34.573226 2.075181 4.472861 -49.760285 -0.000000 -0.000001 0.000001 5.291060 13.688895 -67.334109 0.702226 2.783041 -28.317882 0.736476 2.845617 -29.015750 0.000000 0.000000 0.000002 3.681630 11.243491 15.038444 -45.204258 46.508660 77.073733 -0.000001 0.000001 -0.000015 32.851697 2.231594 33.043728 0.380708 -5.155349 59.829404 1.304393 -3.234218 43.920906 1.865363 -3.729079 53.138114 0.000002 -0.000000 -0.000002 42.310806 34.896352 13.793807 17.294051 -23.046320 -4.030577 4.107745 -36.794489 -19.962121 -0.000002 -0.000000 0.000001 1.740016 -5.525907 52.855139 1.469872 -3.397367 46.781243 0.848071 -2.681550 35.095517 -0.000000 0.000000 0.000000 -0.106337 -4.907869 60.429798 0.886942 -2.735955 35.917608 2.189722 -3.950999 57.978710 -0.000003 0.000000 0.000001 1.487640 -5.667441 50.685919 0.849796 -2.683980 35.131928 1.141618 -3.056435 40.954839 -0.000002 0.000001 0.000001 -103.831907 -2.772757 17.722225 62.876843 -1.728287 -8.287776 -8.675935 0.177650 -2.546533 0.357782 -0.000006 -0.007249 0.000000 0.000001 -0.000000 -103.733833 -3.925124 -17.629470 61.805603 1.949468 9.938056 -8.291599 0.119716 -0.660389 0.490588 -0.000014 -0.000002 0.000000 0.000000 0.000000 
0.475700 163.463242 5.670578 50.016533 -0.266880 -2.337113 1.522781 0.180500 0.219373 3.817588 0.362647 0.724628 3.818564 0.366801 0.720704 -26.158004 -1.419054 3.342599 -26.731916 0.718098 -5.011093 0.000000 0.000000 0.000000 0.000000 0.000000 0.000000 0.000000 0.000000 0.000000 3.581047 -12.928948 -5.715311 -49.460624 -55.369905 -89.252787 0.000008 -0.313118 0.000021 12.029991 9.820747 -8.760352 2.012886 7.147915 -69.612011 1.320663 3.706606 -39.210665 2.028755 4.433291 -49.162233 0.000001 0.000000 0.000002 53.417871 -58.203361 -1.904821 25.103186 23.378793 -20.779432 3.041413 37.718921 23.818816 0.000003 0.000001 -0.000001 1.403156 6.884336 -68.807975 1.178655 3.525777 -36.959687 1.363345 3.758232 -39.866325 -0.000001 -0.000000 0.000001 4.761699 8.114862 -72.831407 1.044689 3.340657 -34.722790 2.082800 4.479273 -49.857704 -0.000002 -0.000001 -0.000001 5.157000 13.636940 -67.292526 0.694311 2.768313 -28.154574 0.741565 2.854746 -29.117878 0.000000 -0.000000 0.000001 3.674442 11.288559 15.016309 -44.907968 46.862290 76.679378 -0.000003 0.000023 0.000010 31.591554 2.621728 32.364199 0.429756 -5.242017 61.106267 1.323357 -3.253730 44.255791 1.867648 -3.730790 53.173347 0.000000 -0.000001 -0.000000 42.310802 34.896372 13.793807 17.987045 -25.858430 -2.773568 5.343864 -38.607832 -17.614921 0.000000 -0.000000 0.000003 2.239846 -6.124489 56.381531 1.521617 -3.445166 47.648380 0.848898 -2.682718 35.112869 -0.000001 0.000000 0.000001 -0.116305 -4.960110 61.419711 0.899446 -2.753110 36.178764 2.194132 -3.953773 58.042811 -0.000003 -0.000000 0.000001 1.540519 -5.716709 51.573095 0.868861 -2.710841 35.537143 1.145511 -3.060892 41.027611 0.000001 -0.000001 -0.000000 -103.080259 -2.842355 17.535636 62.947768 -1.516427 -8.195720 -8.707918 0.151254 -2.587159 0.348756 -0.000006 -0.013260 -0.000000 -0.000000 -0.000000 -102.938109 -3.757804 -17.587995 61.849829 1.758135 9.928999 -8.313098 0.136269 -0.558709 0.483980 -0.000013 0.000001 -0.000000 -0.000001 0.000000 
0.589021 163.511063 5.430496 49.239356 -0.159967 -2.341522 1.478925 0.162342 0.241591 3.737380 0.338971 0.744926 3.738609 0.341557 0.741424 -25.824192 -1.429790 3.469611 -26.435839 0.919118 -5.442157 -0.000000 0.000000 -0.000000 -0.000000 0.000000 -0.000000 -0.000000 0.000000 -0.000000 3.590817 -12.860423 -5.333896 -50.058993 -55.824553 -89.532681 0.000009 -0.557634 0.000006 12.531147 9.467351 -8.052446 1.956852 7.139352 -69.927415 1.324349 3.711108 -39.267591 2.037188 4.440540 -49.271342 0.000001 -0.000000 -0.000000 53.417909 -58.203368 -1.904795 25.221510 23.555050 -20.893832 2.952939 37.705960 23.951008 0.000003 -0.000000 0.000000 1.511726 6.946386 -69.248262 1.181405 3.529433 -37.004199 1.357148 3.750796 -39.771710 -0.000000 0.000001 0.000002 4.746621 8.107359 -73.112995 1.049738 3.347907 -34.809376 2.094014 4.488709 -50.001363 -0.000000 -0.000000 -0.000000 5.068707 13.596900 -67.352441 0.699287 2.777565 -28.257311 0.746282 2.863204 -29.212340 -0.000001 0.000000 -0.000002 3.679668 11.189319 14.865760 -44.957736 47.422649 76.412851 0.000012 0.000006 -0.000014 30.051067 3.433475 31.698379 0.472390 -5.316811 62.233856 1.339769 -3.270470 44.544025 1.872178 -3.734141 53.242844 0.000002 -0.000001 0.000001 42.310819 34.896348 13.793815 18.745731 -28.327692 -1.560551 6.754618 -40.466460 -15.121033 0.000002 -0.000000 0.000001 2.796557 -6.556087 59.461025 1.576230 -3.494107 48.550825 0.850983 -2.685660 35.157466 0.000002 0.000001 -0.000000 -0.130205 -5.006587 62.331412 0.910429 -2.768045 36.406643 2.202095 -3.958690 58.157995 0.000000 -0.000000 0.000002 1.590370 -5.761803 52.398336 0.884577 -2.732688 35.868018 1.147119 -3.062717 41.057681 0.000001 -0.000002 0.000001 -102.443555 -2.866175 17.102671 63.120565 -1.152982 -7.783171 -8.717341 0.163682 -2.801772 0.339806 0.000007 -0.019246 -0.000000 0.000000 0.000000 -102.249858 -3.568968 -17.543032 61.984964 1.547889 9.815406 -8.306163 0.143302 -0.412590 0.477445 -0.000005 0.000002 -0.000000 0.000000 0.000000 
0.746644 163.400162 5.094650 48.421564 -0.131920 -2.318640 1.463364 0.151075 0.240379 3.691745 0.321922 0.742816 3.693015 0.324507 0.739560 -25.492168 -1.423651 3.511874 -25.941238 1.026397 -5.457497 0.000000 -0.000000 -0.000000 0.000000 -0.000000 -0.000000 0.000000 -0.000000 -0.000000 3.593088 -12.868747 -5.192095 -50.744020 -56.181878 -89.403502 0.000006 -0.669057 -0.000001 12.364570 8.812880 -6.806898 1.907334 7.138275 -70.350798 1.328162 3.715783 -39.326529 2.048758 4.450448 -49.420455 0.000001 0.000000 -0.000000 53.417888 -58.203361 -1.904805 25.337398 23.725842 -20.996095 2.858915 37.703498 24.089363 0.000004 -0.000000 0.000000 1.611027 7.003612 -69.693570 1.189861 3.540572 -37.141264 1.346603 3.738128 -39.610405 -0.000000 0.000000 -0.000000 4.717025 8.095468 -73.443037 1.059077 3.361275 -34.968950 2.108138 4.500481 -50.181509 -0.000000 -0.000000 -0.000001 4.992415 13.558250 -67.471341 0.703730 2.785826 -28.348943 0.754266 2.877415 -29.371907 -0.000001 0.000001 0.000001 3.670620 11.257275 14.740308 -45.561132 47.861922 76.179388 -0.000005 0.000026 0.000008 29.450003 4.109643 30.610360 0.531199 -5.378571 62.922469 1.353530 -3.284372 44.784990 1.881074 -3.740780 53.379349 0.000000 -0.000002 0.000001 42.310812 34.896355 13.793817 19.023675 -29.160458 -1.161418 7.302951 -41.177342 -14.147117 -0.000001 0.000001 -0.000000 3.039759 -6.678267 60.823463 1.587322 -3.503825 48.732365 0.853072 -2.688646 35.201989 -0.000000 0.000000 -0.000001 -0.133216 -5.033293 62.805399 0.917700 -2.777855 36.557064 2.212864 -3.965353 58.313888 -0.000001 0.000001 0.000001 1.618150 -5.786360 52.853155 0.901738 -2.756226 36.226507 1.154561 -3.071247 41.196798 0.000001 0.000000 0.000001 -101.910425 -2.901275 16.753884 63.484860 -0.820115 -7.384850 -8.776425 0.179711 -2.985357 0.330833 0.000005 -0.025418 -0.000000 0.000001 0.000000 -101.692535 -3.439553 -17.394036 62.270637 1.372027 9.521332 -8.303225 0.135285 -0.204143 0.470945 -0.000002 -0.000000 -0.000000 0.000000 0.000000 
